<?xml version="1.0" standalone="no"?>
<!DOCTYPE svg PUBLIC "-//W3C//DTD SVG 20010904//EN"
 "http://www.w3.org/TR/2001/REC-SVG-20010904/DTD/svg10.dtd">
<svg version="1.0" xmlns="http://www.w3.org/2000/svg"
 width="661.000000pt" height="661.000000pt" viewBox="0 0 661.000000 661.000000"
 preserveAspectRatio="xMidYMid meet">

<g transform="translate(0.000000,661.000000) scale(0.100000,-0.100000)"
fill="#000000" stroke="none">
<path d="M4650 6316 c0 -2 7 -7 16 -10 8 -3 12 -2 9 4 -6 10 -25 14 -25 6z"/>
<path d="M4700 6290 c8 -5 20 -10 25 -10 6 0 3 5 -5 10 -8 5 -19 10 -25 10 -5
0 -3 -5 5 -10z"/>
<path d="M4747 6269 c7 -7 15 -10 18 -7 3 3 -2 9 -12 12 -14 6 -15 5 -6 -5z"/>
<path d="M4780 6257 c0 -2 48 -33 108 -67 189 -112 492 -322 492 -342 0 -4 5
-8 10 -8 16 0 186 -155 281 -255 103 -110 149 -161 149 -167 0 -9 -4 -9 -310
-11 -238 -2 -264 -8 -275 -65 -4 -15 -8 -35 -10 -45 -2 -10 11 -33 30 -52 l32
-35 109 -1 c60 0 145 -1 189 -1 44 -1 86 2 94 6 9 6 12 3 11 -10 -4 -37 0 -54
14 -54 8 0 17 -10 19 -22 l4 -23 2 23 c0 12 -6 25 -14 28 -34 13 -11 54 30 54
16 0 26 -35 13 -48 -6 -6 -8 -16 -5 -24 4 -12 12 3 33 61 3 11 8 11 16 3 8 -8
8 -15 -1 -26 -7 -8 -10 -20 -6 -27 4 -6 1 -16 -6 -21 -11 -7 -11 -11 -1 -15
17 -7 15 -33 -3 -33 -21 0 -19 -17 5 -30 27 -15 25 -30 -4 -30 -28 0 -41 33
-23 61 19 31 -1 34 -29 4 -21 -23 -28 -25 -36 -14 -8 12 -9 12 -5 -1 2 -8 16
-16 31 -18 19 -2 26 -8 24 -20 -4 -22 -77 -30 -89 -10 -7 10 -9 10 -9 1 0 -7
-4 -13 -10 -13 -5 0 -10 8 -10 17 0 15 -1 15 -13 -2 -15 -20 -50 -23 -263 -24
-109 -1 -125 -3 -155 -24 -38 -25 -53 -73 -37 -118 17 -50 43 -58 184 -60 155
-1 168 -4 190 -36 16 -25 16 -26 -5 -20 -20 5 -22 3 -15 -26 4 -18 7 -41 7
-53 0 -15 5 -20 21 -20 12 1 21 -5 21 -14 0 -9 -8 -14 -20 -12 -11 2 -24 3
-30 2 -5 -1 -165 -3 -355 -6 -190 -2 -354 -6 -366 -9 -55 -12 -68 -119 -20
-164 23 -22 29 -22 266 -21 235 0 242 0 237 -19 -6 -23 18 -18 27 5 7 19 42
18 50 -1 7 -20 26 -19 26 1 0 9 7 14 18 12 9 -2 16 -11 16 -21 -2 -22 14 -22
18 0 2 9 13 17 26 18 17 1 21 -2 16 -17 -4 -12 0 -18 11 -18 12 0 15 -5 11
-16 -3 -9 -6 -20 -6 -25 0 -19 -17 -8 -26 17 l-9 26 -23 -20 c-19 -17 -22 -24
-13 -39 9 -16 10 -16 11 5 0 12 5 22 10 22 11 0 13 -10 10 -58 -1 -21 4 -34
14 -38 17 -7 22 -34 6 -34 -5 0 -10 5 -10 10 0 12 -37 13 -44 1 -7 -11 -56 10
-56 24 0 16 -38 36 -45 25 -3 -6 0 -10 8 -10 13 0 27 -20 27 -37 0 -3 -11 -2
-24 1 -14 3 -27 2 -30 -3 -8 -12 -46 -2 -46 13 0 6 -4 4 -10 -4 -8 -13 -51
-19 -145 -21 -14 0 -16 -2 -7 -8 10 -6 10 -17 1 -53 -7 -25 -17 -45 -23 -44
-6 2 -8 1 -3 -1 11 -7 8 -28 -8 -59 -12 -23 -12 -31 -2 -39 7 -5 11 -21 9 -34
-4 -22 -2 -23 12 -8 9 8 16 20 16 26 0 20 31 11 40 -11 l9 -23 7 23 c7 25 34
30 34 7 0 -8 7 -15 15 -15 8 0 15 7 15 16 0 9 7 14 17 12 25 -5 28 -28 4 -28
-12 0 -21 -6 -21 -15 0 -8 -7 -15 -15 -15 -8 0 -15 -9 -15 -20 0 -23 -10 -26
-28 -8 -10 10 -14 8 -18 -10 -4 -12 -13 -22 -20 -22 -8 0 -14 -5 -14 -11 0
-11 -11 -23 -44 -49 -18 -14 -18 -13 -12 8 5 16 3 22 -7 22 -9 0 -17 3 -20 8
-5 9 1 -13 9 -32 4 -11 -9 -16 -60 -21 -36 -4 -63 -11 -60 -17 3 -5 15 -6 26
-2 17 5 18 3 9 -13 -5 -11 -42 -54 -82 -96 l-72 -77 -153 0 -153 0 -38 -47
c-21 -25 -98 -107 -171 -182 -73 -74 -129 -138 -125 -142 7 -6 1335 -18 2108
-19 l340 0 -5 -87 -5 -88 -1339 -3 -1340 -2 -61 29 c-65 30 -92 59 -124 134
l-19 45 -90 -3 c-49 -1 -95 -5 -101 -10 -10 -5 -12 -33 -8 -105 4 -89 7 -101
33 -134 50 -63 126 -114 206 -136 68 -19 98 -20 434 -19 241 1 368 -2 381 -9
28 -15 53 -56 53 -86 0 -35 -45 -84 -88 -96 -20 -5 -111 -10 -202 -10 l-165
-1 40 -32 c22 -18 73 -60 115 -95 l75 -62 1056 0 1057 0 21 91 c12 50 21 94
21 97 0 4 -355 7 -789 7 l-790 0 -30 29 c-25 24 -31 38 -31 72 0 35 5 47 31
68 l31 26 791 2 c436 0 799 1 808 0 43 -3 60 573 26 847 -125 1003 -675 1874
-1519 2409 -98 63 -288 167 -288 159z m1080 -1063 c0 -14 3 -14 15 -4 12 10
15 9 15 -5 0 -13 -6 -16 -25 -11 -18 5 -25 2 -25 -8 0 -8 7 -16 15 -20 8 -3
15 -11 15 -18 0 -9 -3 -9 -10 2 -5 8 -12 11 -17 7 -4 -4 -2 -17 5 -27 11 -17
10 -20 -8 -20 -11 0 -20 6 -21 13 -3 31 4 72 12 75 5 2 9 10 9 18 0 8 5 14 10
14 6 0 10 -7 10 -16z m66 -1 c13 -17 13 -17 14 0 0 11 6 17 13 14 14 -5 10
-39 -6 -49 -11 -7 -46 27 -47 45 0 12 12 8 26 -10z m-1 -60 c3 -9 1 -21 -5
-27 -12 -12 -15 -8 -24 26 -5 21 -3 26 8 22 8 -3 17 -13 21 -21z m35 -33 c-7
-4 -10 -12 -6 -18 3 -5 -1 -15 -9 -22 -13 -11 -15 -8 -15 14 0 14 4 26 9 26 5
0 12 10 16 23 6 20 8 20 12 3 3 -10 -1 -22 -7 -26z m50 3 c0 -22 -2 -25 -10
-13 -13 20 -13 40 0 40 6 0 10 -12 10 -27z m-120 -28 c0 -14 -4 -25 -10 -25
-5 0 -10 11 -10 25 0 14 5 25 10 25 6 0 10 -11 10 -25z m-60 -10 c0 -8 -4 -15
-10 -15 -5 0 -10 7 -10 15 0 8 5 15 10 15 6 0 10 -7 10 -15z m30 -35 c0 -11
-4 -20 -10 -20 -5 0 -10 9 -10 20 0 11 5 20 10 20 6 0 10 -9 10 -20z m60 5 c0
-8 -4 -15 -10 -15 -5 0 -10 7 -10 15 0 8 5 15 10 15 6 0 10 -7 10 -15z m60 0
c0 -8 -4 -15 -9 -15 -13 0 -22 16 -14 24 11 11 23 6 23 -9z m65 -3 c0 -18 -20
-15 -23 4 -3 10 1 15 10 12 7 -3 13 -10 13 -16z m-465 -247 c0 -8 -7 -15 -15
-15 -8 0 -15 7 -15 15 0 8 7 15 15 15 8 0 15 -7 15 -15z m60 -6 c0 -5 -7 -9
-15 -9 -15 0 -20 12 -9 23 8 8 24 -1 24 -14z m78 4 c2 -8 -6 -13 -22 -13 -25
0 -33 10 -19 24 10 10 36 3 41 -11z m64 2 c0 -5 -5 -11 -11 -13 -6 -2 -11 4
-11 13 0 9 5 15 11 13 6 -2 11 -8 11 -13z m63 6 c3 -5 1 -12 -5 -16 -5 -3 -10
1 -10 9 0 18 6 21 15 7z m83 -2 c-2 -6 -8 -10 -13 -10 -5 0 -11 4 -13 10 -2 6
4 11 13 11 9 0 15 -5 13 -11z m39 -11 c-3 -8 -6 -5 -6 6 -1 11 2 17 5 13 3 -3
4 -12 1 -19z m-359 -30 c-7 -19 -38 -22 -38 -4 0 10 9 16 21 16 12 0 19 -5 17
-12z m72 -3 c0 -8 -9 -15 -20 -15 -20 0 -26 11 -13 23 12 13 33 7 33 -8z m70
0 c0 -8 -7 -15 -15 -15 -16 0 -20 12 -8 23 11 12 23 8 23 -8z m72 0 c0 -5 -5
-11 -11 -13 -6 -2 -11 4 -11 13 0 9 5 15 11 13 6 -2 11 -8 11 -13z m68 6 c0
-6 -4 -13 -10 -16 -5 -3 -10 1 -10 9 0 9 5 16 10 16 6 0 10 -4 10 -9z m-325
-31 c10 -16 -16 -43 -28 -31 -11 11 -2 41 12 41 5 0 13 -5 16 -10z m74 -26
c-9 -11 -15 -12 -25 -3 -11 9 -12 15 -3 25 9 11 15 12 25 3 11 -9 12 -15 3
-25z m72 3 c-5 -5 -17 -7 -26 -3 -14 5 -15 9 -5 21 10 12 16 13 27 4 9 -8 10
-16 4 -22z m219 18 c0 -8 -7 -15 -15 -15 -16 0 -20 12 -8 23 11 12 23 8 23 -8z
m-140 -10 c0 -8 -7 -15 -15 -15 -8 0 -15 7 -15 15 0 8 7 15 15 15 8 0 15 -7
15 -15z m70 -1 c0 -17 -22 -14 -28 4 -2 7 3 12 12 12 9 0 16 -7 16 -16z m-257
-45 c-7 -7 -19 -9 -28 -5 -13 5 -14 10 -4 27 10 20 12 20 27 5 12 -12 13 -19
5 -27z m77 17 c0 -8 -5 -18 -11 -22 -14 -8 -33 11 -25 25 10 16 36 13 36 -3z
m74 -1 c3 -9 0 -15 -9 -15 -8 0 -15 7 -15 15 0 8 4 15 9 15 5 0 11 -7 15 -15z
m74 -3 c2 -7 -3 -12 -12 -12 -9 0 -16 7 -16 16 0 17 22 14 28 -4z m72 -3 c0
-5 -7 -9 -15 -9 -15 0 -20 12 -9 23 8 8 24 -1 24 -14z m100 -30 c0 -11 -4 -17
-10 -14 -5 3 -10 13 -10 21 0 8 5 14 10 14 6 0 10 -9 10 -21z m-364 0 c3 -6 2
-15 -2 -19 -12 -12 -38 5 -30 19 9 14 23 14 32 0z m82 -7 c2 -7 -3 -12 -12
-12 -9 0 -16 7 -16 16 0 17 22 14 28 -4z m72 3 c0 -8 -4 -15 -10 -15 -5 0 -10
7 -10 15 0 8 5 15 10 15 6 0 10 -7 10 -15z m66 -12 c-10 -10 -19 5 -10 18 6
11 8 11 12 0 2 -7 1 -15 -2 -18z m74 7 c0 -5 -4 -10 -10 -10 -5 0 -10 5 -10
10 0 6 5 10 10 10 6 0 10 -4 10 -10z m-410 -225 c0 -8 -7 -15 -15 -15 -16 0
-20 12 -8 23 11 12 23 8 23 -8z m70 -27 c0 -10 -7 -18 -16 -18 -10 0 -14 6
-10 15 3 8 1 15 -4 15 -6 0 -10 7 -10 15 0 13 3 13 20 3 11 -7 20 -21 20 -30z
m50 25 c0 -5 -8 -17 -17 -28 -14 -18 -15 -18 -9 -2 3 10 6 23 6 28 0 5 5 9 10
9 6 0 10 -3 10 -7z m90 -9 c0 -8 -5 -12 -10 -9 -6 4 -8 11 -5 16 9 14 15 11
15 -7z m60 6 c0 -5 -4 -10 -10 -10 -5 0 -10 5 -10 10 0 6 5 10 10 10 6 0 10
-4 10 -10z m79 -15 c3 -17 2 -17 -13 -3 -19 20 -21 31 -3 26 6 -3 14 -13 16
-23z m56 15 c3 -5 -1 -10 -9 -10 -9 0 -16 5 -16 10 0 6 4 10 9 10 6 0 13 -4
16 -10z m65 0 c0 -5 -4 -10 -10 -10 -5 0 -10 5 -10 10 0 6 5 10 10 10 6 0 10
-4 10 -10z m-445 -30 c3 -6 -1 -13 -9 -16 -9 -3 -16 -17 -16 -31 0 -13 -4 -21
-10 -18 -5 3 -10 15 -10 26 0 10 5 19 10 19 6 0 10 7 10 15 0 17 16 20 25 5z
m145 0 c0 -5 -7 -10 -15 -10 -8 0 -15 5 -15 10 0 6 7 10 15 10 8 0 15 -4 15
-10z m230 -31 c0 -5 -4 -9 -10 -9 -5 0 -10 7 -10 16 0 8 5 12 10 9 6 -3 10
-10 10 -16z m70 17 c0 -3 -4 -8 -10 -11 -5 -3 -10 -1 -10 4 0 6 5 11 10 11 6
0 10 -2 10 -4z m-412 -24 c2 -7 -3 -12 -12 -12 -9 0 -16 7 -16 16 0 17 22 14
28 -4z m70 0 c2 -7 -3 -12 -12 -12 -9 0 -16 7 -16 16 0 17 22 14 28 -4z m56 3
c3 -8 1 -15 -4 -15 -6 0 -10 7 -10 15 0 8 2 15 4 15 2 0 6 -7 10 -15z m126 5
c0 -5 -4 -10 -10 -10 -5 0 -10 5 -10 10 0 6 5 10 10 10 6 0 10 -4 10 -10z
m-337 -45 c8 -18 -11 -31 -25 -17 -11 11 -3 32 12 32 4 0 10 -7 13 -15z m65
-9 c3 -12 -1 -17 -10 -14 -7 3 -15 13 -16 22 -3 12 1 17 10 14 7 -3 15 -13 16
-22z m62 9 c0 -8 -7 -15 -15 -15 -16 0 -20 12 -8 23 11 12 23 8 23 -8z m130
-6 c0 -5 -4 -9 -10 -9 -5 0 -10 7 -10 16 0 8 5 12 10 9 6 -3 10 -10 10 -16z
m55 12 c3 -5 1 -12 -5 -16 -5 -3 -10 1 -10 9 0 18 6 21 15 7z m65 -1 c0 -5 -5
-10 -11 -10 -5 0 -7 5 -4 10 3 6 8 10 11 10 2 0 4 -4 4 -10z m90 0 c0 -5 -4
-10 -10 -10 -5 0 -10 5 -10 10 0 6 5 10 10 10 6 0 10 -4 10 -10z m-275 -10
c-3 -5 -10 -10 -16 -10 -5 0 -9 5 -9 10 0 6 7 10 16 10 8 0 12 -4 9 -10z
m-155 -39 c15 -28 12 -33 -10 -19 -21 13 -27 38 -10 38 5 0 14 -9 20 -19z m56
8 c3 -6 1 -16 -5 -22 -9 -9 -14 -8 -21 3 -9 15 -4 30 10 30 5 0 12 -5 16 -11z
m74 7 c0 -16 -14 -36 -25 -36 -14 0 -27 25 -18 34 7 7 43 8 43 2z m50 -10 c0
-8 -4 -18 -10 -21 -5 -3 -10 3 -10 14 0 12 5 21 10 21 6 0 10 -6 10 -14z m50
-12 c0 -8 -5 -12 -10 -9 -6 4 -8 11 -5 16 9 14 15 11 15 -7z m80 6 c0 -5 -4
-10 -10 -10 -5 0 -10 5 -10 10 0 6 5 10 10 10 6 0 10 -4 10 -10z m80 0 c0 -5
-4 -10 -10 -10 -5 0 -10 5 -10 10 0 6 5 10 10 10 6 0 10 -4 10 -10z m70 -4 c0
-3 -4 -8 -10 -11 -5 -3 -10 -1 -10 4 0 6 5 11 10 11 6 0 10 -2 10 -4z m-682
-253 c2 -8 -5 -13 -17 -13 -12 0 -21 6 -21 16 0 18 31 15 38 -3z m39 -16 c1
-21 -3 -27 -19 -27 -14 0 -18 5 -14 16 3 9 6 22 6 31 0 26 25 8 27 -20z m43
18 c0 -8 -4 -15 -9 -15 -13 0 -22 16 -14 24 11 11 23 6 23 -9z m58 4 c-2 -6
-8 -10 -13 -10 -5 0 -11 4 -13 10 -2 6 4 11 13 11 9 0 15 -5 13 -11z m62 -4
c0 -8 -4 -15 -10 -15 -5 0 -10 7 -10 15 0 8 5 15 10 15 6 0 10 -7 10 -15z
m100 0 c0 -8 -4 -15 -10 -15 -5 0 -10 7 -10 15 0 8 5 15 10 15 6 0 10 -7 10
-15z m56 -12 c-10 -10 -19 5 -10 18 6 11 8 11 12 0 2 -7 1 -15 -2 -18z m114 6
c0 -5 -4 -9 -10 -9 -5 0 -10 7 -10 16 0 8 5 12 10 9 6 -3 10 -10 10 -16z m106
-6 c-10 -10 -19 5 -10 18 6 11 8 11 12 0 2 -7 1 -15 -2 -18z m-156 7 c0 -5 -4
-10 -10 -10 -5 0 -10 5 -10 10 0 6 5 10 10 10 6 0 10 -4 10 -10z m100 0 c0 -5
-4 -10 -10 -10 -5 0 -10 5 -10 10 0 6 5 10 10 10 6 0 10 -4 10 -10z m120 0 c0
-5 -4 -10 -10 -10 -5 0 -10 5 -10 10 0 6 5 10 10 10 6 0 10 -4 10 -10z m-674
-21 c10 -17 -13 -36 -27 -22 -12 12 -4 33 11 33 5 0 12 -5 16 -11z m134 -9 c0
-5 -4 -10 -10 -10 -5 0 -10 5 -10 10 0 6 5 10 10 10 6 0 10 -4 10 -10z m70 0
c0 -5 -4 -10 -10 -10 -5 0 -10 5 -10 10 0 6 5 10 10 10 6 0 10 -4 10 -10z
m167 -16 c-9 -9 -28 6 -21 18 4 6 10 6 17 -1 6 -6 8 -13 4 -17z m-405 -26 c-9
-9 -15 -9 -24 0 -10 10 -10 15 2 22 20 12 38 -6 22 -22z m323 23 c3 -5 1 -12
-5 -16 -5 -3 -10 1 -10 9 0 18 6 21 15 7z m156 -4 c-1 -12 -15 -9 -19 4 -3 6
1 10 8 8 6 -3 11 -8 11 -12z m69 -2 c0 -8 -4 -15 -10 -15 -5 0 -10 7 -10 15 0
8 5 15 10 15 6 0 10 -7 10 -15z m80 -1 c0 -8 -4 -12 -10 -9 -5 3 -10 10 -10
16 0 5 5 9 10 9 6 0 10 -7 10 -16z m-562 -6 c-3 -7 -11 -13 -18 -13 -7 0 -15
6 -17 13 -3 7 4 12 17 12 13 0 20 -5 18 -12z m72 5 c0 -12 -46 -53 -59 -53 -6
0 -11 -7 -11 -15 0 -15 -12 -20 -23 -9 -9 9 34 54 52 54 7 0 11 6 7 15 -4 10
1 15 14 15 11 0 20 -3 20 -7z m70 -3 c0 -5 -7 -10 -15 -10 -8 0 -15 5 -15 10
0 6 7 10 15 10 8 0 15 -4 15 -10z m60 0 c0 -5 -4 -10 -10 -10 -5 0 -10 5 -10
10 0 6 5 10 10 10 6 0 10 -4 10 -10z m100 -11 c0 -5 -4 -9 -10 -9 -5 0 -10 7
-10 16 0 8 5 12 10 9 6 -3 10 -10 10 -16z m68 -1 c-6 -18 -28 -21 -28 -4 0 9
7 16 16 16 9 0 14 -5 12 -12z m152 -14 c0 -8 -5 -12 -10 -9 -6 4 -8 11 -5 16
9 14 15 11 15 -7z m90 6 c0 -5 -4 -10 -10 -10 -5 0 -10 5 -10 10 0 6 5 10 10
10 6 0 10 -4 10 -10z m-707 -21 c3 -12 10 -18 16 -14 6 3 15 3 21 0 11 -7 -9
-45 -25 -45 -13 0 -47 59 -39 71 9 15 21 10 27 -12z m65 3 c2 -7 -3 -12 -12
-12 -9 0 -16 7 -16 16 0 17 22 14 28 -4z m132 3 c0 -8 -4 -15 -10 -15 -5 0
-10 7 -10 15 0 8 5 15 10 15 6 0 10 -7 10 -15z m70 5 c0 -5 -4 -10 -10 -10 -5
0 -10 5 -10 10 0 6 5 10 10 10 6 0 10 -4 10 -10z m-298 -52 c2 -9 -1 -16 -7
-15 -5 1 -9 5 -7 10 1 4 -4 7 -12 7 -16 0 -29 27 -20 42 8 12 41 -20 46 -44z
m398 32 c0 -5 -7 -10 -15 -10 -8 0 -15 5 -15 10 0 6 7 10 15 10 8 0 15 -4 15
-10z m65 0 c3 -5 -1 -10 -9 -10 -9 0 -16 5 -16 10 0 6 4 10 9 10 6 0 13 -4 16
-10z m-265 -21 c0 -5 -7 -9 -15 -9 -15 0 -20 12 -9 23 8 8 24 -1 24 -14z m68
10 c-2 -6 -8 -10 -13 -10 -5 0 -11 4 -13 10 -2 6 4 11 13 11 9 0 15 -5 13 -11z
m-318 -35 c0 -14 -21 -19 -33 -8 -8 8 16 33 26 27 4 -2 7 -11 7 -19z m570 5
c0 -5 -7 -9 -15 -9 -15 0 -20 12 -9 23 8 8 24 -1 24 -14z m137 -5 c-9 -9 -28
6 -21 18 4 6 10 6 17 -1 6 -6 8 -13 4 -17z m63 11 c0 -8 -7 -15 -15 -15 -16 0
-20 12 -8 23 11 12 23 8 23 -8z m-616 -16 c-3 -5 -10 -7 -15 -3 -5 3 -7 10 -3
15 3 5 10 7 15 3 5 -3 7 -10 3 -15z m61 12 c7 -12 -12 -24 -25 -16 -11 7 -4
25 10 25 5 0 11 -4 15 -9z m65 -7 c0 -8 -4 -12 -10 -9 -5 3 -10 10 -10 16 0 5
5 9 10 9 6 0 10 -7 10 -16z m70 6 c0 -5 -7 -10 -16 -10 -8 0 -12 5 -9 10 3 6
10 10 16 10 5 0 9 -4 9 -10z m60 0 c0 -5 -4 -10 -10 -10 -5 0 -10 5 -10 10 0
6 5 10 10 10 6 0 10 -4 10 -10z m45 0 c-3 -5 -11 -10 -16 -10 -6 0 -7 5 -4 10
3 6 11 10 16 10 6 0 7 -4 4 -10z m195 0 c0 -5 -4 -10 -10 -10 -5 0 -10 5 -10
10 0 6 5 10 10 10 6 0 10 -4 10 -10z"/>
<path d="M1530 6089 c-22 -18 -22 -19 -3 -10 12 6 25 16 28 21 9 15 3 12 -25
-11z"/>
<path d="M1373 5984 c-724 -528 -1193 -1293 -1332 -2174 -23 -144 -41 -365
-41 -498 l0 -91 1232 6 c678 3 1233 8 1233 12 1 3 -48 53 -107 110 -59 57
-140 141 -179 187 l-71 84 -197 0 c-108 0 -190 4 -183 8 17 12 82 149 74 158
-4 4 -1 4 5 0 7 -4 23 0 35 8 21 15 18 16 -52 17 -41 1 -79 1 -84 0 -21 -4
-206 23 -206 30 0 15 21 21 35 9 9 -7 15 -8 15 -2 0 5 -7 12 -15 16 -8 3 -15
11 -15 18 0 6 -14 27 -32 45 -23 24 -29 36 -21 44 14 14 36 1 29 -17 -3 -8 -2
-14 3 -14 17 0 19 14 5 41 l-15 29 103 0 c131 0 341 9 347 15 2 3 -5 5 -16 5
-12 0 -24 7 -27 16 -3 8 -11 12 -17 8 -8 -4 -7 -9 2 -15 10 -6 4 -9 -16 -9
-28 0 -31 3 -30 32 0 26 5 33 25 39 l25 6 -25 4 c-27 4 -43 49 -18 49 8 1 6 6
-6 15 -23 18 -16 21 67 30 32 4 57 8 55 10 -1 2 -177 5 -390 7 -236 2 -388 7
-388 12 0 6 -5 5 -12 -2 -19 -19 -27 -14 -26 19 1 17 7 33 15 36 7 3 13 14 13
24 0 10 7 19 15 19 8 0 15 -8 15 -17 0 -15 2 -16 10 -3 13 20 13 33 0 25 -5
-3 -10 -1 -10 4 0 15 -27 14 -33 -1 -4 -10 -8 -10 -16 2 -5 8 -7 18 -5 22 3 4
0 8 -5 8 -6 0 -11 -7 -11 -15 0 -9 -6 -18 -14 -21 -8 -3 -17 -15 -20 -27 -4
-18 -8 -19 -18 -9 -11 11 -10 16 5 26 9 7 17 20 17 29 0 8 7 17 15 21 8 3 15
12 15 21 0 21 27 19 33 -2 4 -17 5 -17 6 0 1 20 21 23 39 5 9 -9 12 -9 12 0 0
7 9 12 20 12 11 0 20 -5 20 -11 0 -8 5 -8 15 1 8 7 21 10 30 7 8 -4 17 -2 20
3 4 6 17 7 30 4 36 -9 59 10 73 59 12 38 11 49 -1 73 -31 59 -47 66 -164 69
-59 1 -114 3 -120 4 -9 1 -12 23 -10 76 1 52 -2 75 -10 75 -6 0 -13 -6 -16
-12 -3 -10 -9 -10 -26 0 -18 10 -21 10 -21 -4 0 -16 -21 -15 -27 2 -11 34 -9
34 1048 33 569 -1 1063 -3 1099 -5 36 -2 83 -1 106 2 92 11 124 101 59 166
l-25 26 -588 6 c-1095 11 -1557 18 -1672 23 -63 3 -143 5 -177 4 -67 0 -85 11
-59 37 16 16 18 16 28 -2 9 -17 12 -16 29 10 23 35 24 54 4 54 -8 0 -15 9 -15
20 0 11 7 20 15 20 8 0 15 -9 15 -19 0 -11 5 -23 11 -26 6 -4 14 -17 19 -29 8
-19 9 -19 9 7 1 15 -3 27 -9 27 -15 0 -12 28 5 37 10 6 11 13 5 23 -7 10 -10
11 -10 3 0 -7 -7 -13 -15 -13 -8 0 -15 8 -15 17 0 15 -1 15 -14 -2 -14 -19
-53 -14 -41 5 12 19 -7 10 -26 -12 l-18 -23 -1 22 c0 12 8 26 18 31 9 5 199
10 422 11 223 1 416 5 430 8 73 17 94 96 41 155 l-29 33 -436 3 c-244 1 -436
7 -436 11 0 12 133 154 275 294 93 92 219 200 385 329 19 15 32 27 28 28 -3 0
-60 -39 -125 -86z m-683 -773 c0 -5 9 -11 21 -14 12 -3 19 -11 17 -18 -8 -24
-26 -20 -41 10 -9 17 -11 31 -6 31 5 0 9 -4 9 -9z m60 5 c0 -11 -19 -15 -25
-6 -3 5 1 10 9 10 9 0 16 -2 16 -4z m-81 -42 c-6 -8 -15 -14 -20 -14 -14 0
-11 28 4 33 20 7 29 -4 16 -19z m115 17 c7 -10 -32 -47 -40 -38 -3 3 -3 15 1
26 6 21 29 28 39 12z m-50 -56 c14 -4 16 -9 9 -16 -7 -7 -17 -8 -25 -3 -7 5
-23 7 -35 5 -15 -1 -23 3 -23 12 0 19 20 26 40 16 8 -4 24 -10 34 -14z m-94 6
c0 -5 -6 -14 -14 -20 -16 -13 -32 2 -21 19 8 12 35 13 35 1z m157 -7 c7 -18
-17 -38 -31 -24 -11 11 -1 40 14 40 6 0 13 -7 17 -16z m50 -18 c-4 -9 -11 -16
-17 -16 -11 0 -14 33 -3 43 11 11 26 -10 20 -27z m29 -45 c-22 -21 -46 0 -26
24 10 12 16 13 27 3 12 -10 12 -13 -1 -27z m-281 19 c11 -17 -5 -32 -21 -19
-7 6 -11 15 -8 20 7 12 21 11 29 -1z m65 -10 c0 -11 -6 -20 -13 -20 -19 0 -27
10 -20 26 8 21 33 17 33 -6z m104 11 c7 -11 -3 -41 -14 -41 -11 0 -21 30 -14
41 3 5 9 9 14 9 5 0 11 -4 14 -9z m61 -1 c8 -13 -14 -42 -26 -34 -5 3 -9 14
-9 25 0 20 24 26 35 9z m-119 -16 c-4 -11 1 -18 14 -21 22 -6 27 -28 9 -39 -7
-4 -16 1 -21 10 -11 20 -28 21 -28 1 0 -8 -7 -15 -15 -15 -8 0 -15 4 -15 9 0
5 7 14 15 21 8 7 15 21 15 31 0 11 7 19 16 19 11 0 14 -5 10 -16z m-86 -40 c0
-17 -22 -14 -28 4 -2 7 3 12 12 12 9 0 16 -7 16 -16z m170 -4 c0 -11 -7 -20
-15 -20 -8 0 -15 9 -15 20 0 11 7 20 15 20 8 0 15 -9 15 -20z m-222 -8 c2 -7
-5 -12 -17 -12 -14 0 -19 5 -14 15 6 17 25 15 31 -3z m-38 -237 c0 -8 -7 -15
-15 -15 -9 0 -12 6 -9 15 4 8 10 15 15 15 5 0 9 -7 9 -15z m56 -12 c-10 -10
-19 5 -10 18 6 11 8 11 12 0 2 -7 1 -15 -2 -18z m437 18 c15 -2 6 -17 -23 -36
-16 -11 -30 -26 -30 -32 0 -7 -7 -13 -15 -13 -8 0 -15 7 -15 15 0 8 7 15 16
15 13 0 15 7 11 28 -6 28 -4 29 56 23z m-383 -11 c0 -5 -4 -10 -10 -10 -5 0
-10 5 -10 10 0 6 5 10 10 10 6 0 10 -4 10 -10z m50 -5 c0 -8 -4 -15 -10 -15
-5 0 -10 7 -10 15 0 8 5 15 10 15 6 0 10 -7 10 -15z m60 0 c0 -8 -7 -15 -15
-15 -8 0 -15 7 -15 15 0 8 7 15 15 15 8 0 15 -7 15 -15z m50 0 c0 -8 -4 -15
-9 -15 -13 0 -22 16 -14 24 11 11 23 6 23 -9z m70 -1 c0 -9 -5 -14 -12 -12
-18 6 -21 28 -4 28 9 0 16 -7 16 -16z m80 7 c0 -13 -26 -32 -33 -24 -14 13 -6
33 13 33 11 0 20 -4 20 -9z m-160 -73 c0 -10 -4 -18 -10 -18 -5 0 -10 9 -10
21 0 11 -4 17 -10 14 -5 -3 -10 1 -10 9 0 14 3 14 20 4 11 -7 20 -21 20 -30z
m36 15 c-10 -10 -19 5 -10 18 6 11 8 11 12 0 2 -7 1 -15 -2 -18z m108 -63 c-5
-30 -10 -38 -18 -30 -7 7 -7 16 1 29 10 16 8 23 -13 45 -14 14 -23 30 -19 36
4 7 15 2 31 -13 21 -21 24 -31 18 -67z m-354 64 c0 -8 -4 -12 -10 -9 -5 3 -10
10 -10 16 0 5 5 9 10 9 6 0 10 -7 10 -16z m62 1 c0 -5 -5 -11 -11 -13 -6 -2
-11 4 -11 13 0 9 5 15 11 13 6 -2 11 -8 11 -13z m68 0 c0 -8 -4 -15 -10 -15
-5 0 -10 7 -10 15 0 8 5 15 10 15 6 0 10 -7 10 -15z m320 0 c0 -9 -7 -18 -15
-21 -8 -4 -15 -12 -15 -20 0 -8 7 -14 15 -14 21 0 19 -27 -4 -39 -16 -9 -18
-8 -14 9 3 12 -1 22 -11 26 -20 8 -21 34 -1 34 8 0 15 9 15 20 0 11 7 20 15
20 8 0 15 -7 15 -15z m-160 -10 c0 -8 -7 -15 -15 -15 -8 0 -15 7 -15 15 0 8 7
15 15 15 8 0 15 -7 15 -15z m240 -9 c0 -13 -6 -27 -12 -30 -10 -5 -10 -7 0
-12 17 -8 15 -44 -2 -44 -7 0 -16 9 -19 21 -3 11 -15 23 -26 26 -12 3 -21 12
-21 19 0 17 27 18 33 2 4 -10 7 -10 17 -1 11 10 10 14 -3 19 -25 9 -20 24 8
24 20 0 25 -5 25 -24z m-370 -5 c0 -6 -4 -13 -10 -16 -5 -3 -10 1 -10 9 0 9 5
16 10 16 6 0 10 -4 10 -9z m90 -17 c0 -8 -5 -12 -10 -9 -6 4 -8 11 -5 16 9 14
15 11 15 -7z m-140 -9 c0 -8 -7 -15 -15 -15 -8 0 -15 7 -15 15 0 8 7 15 15 15
8 0 15 -7 15 -15z m210 -1 c0 -8 -4 -12 -10 -9 -5 3 -10 10 -10 16 0 5 5 9 10
9 6 0 10 -7 10 -16z m-310 -3 c0 -12 -20 -25 -27 -18 -7 7 6 27 18 27 5 0 9
-4 9 -9z m200 -21 c0 -11 -4 -20 -10 -20 -5 0 -10 9 -10 20 0 11 5 20 10 20 6
0 10 -9 10 -20z m-260 -5 c0 -8 -7 -15 -15 -15 -16 0 -20 12 -8 23 11 12 23 8
23 -8z m110 0 c0 -8 -4 -15 -10 -15 -5 0 -10 7 -10 15 0 8 5 15 10 15 6 0 10
-7 10 -15z m110 0 c0 -8 -4 -15 -10 -15 -5 0 -10 7 -10 15 0 8 5 15 10 15 6 0
10 -7 10 -15z m120 0 c0 -8 -4 -15 -9 -15 -13 0 -22 16 -14 24 11 11 23 6 23
-9z m100 0 c0 -8 -7 -15 -15 -15 -8 0 -15 7 -15 15 0 8 7 15 15 15 8 0 15 -7
15 -15z m-265 -4 c3 -5 1 -12 -5 -16 -5 -3 -10 1 -10 9 0 18 6 21 15 7z m125
-7 c0 -8 -5 -12 -10 -9 -6 4 -8 11 -5 16 9 14 15 11 15 -7z m230 2 c0 -8 -4
-17 -9 -21 -12 -7 -24 12 -16 25 9 15 25 12 25 -4z m-464 -243 c-10 -10 -19 5
-10 18 6 11 8 11 12 0 2 -7 1 -15 -2 -18z m101 5 c-3 -8 -6 -5 -6 6 -1 11 2
17 5 13 3 -3 4 -12 1 -19z m49 -5 c-10 -10 -19 5 -10 18 6 11 8 11 12 0 2 -7
1 -15 -2 -18z m50 0 c-10 -10 -19 5 -10 18 6 11 8 11 12 0 2 -7 1 -15 -2 -18z
m64 6 c0 -5 -7 -9 -15 -9 -15 0 -20 12 -9 23 8 8 24 -1 24 -14z m36 -6 c-10
-10 -19 5 -10 18 6 11 8 11 12 0 2 -7 1 -15 -2 -18z m44 5 c0 -16 -3 -19 -11
-11 -6 6 -8 16 -5 22 11 17 16 13 16 -11z m94 -2 c-6 -16 -24 -23 -24 -8 0 10
22 33 27 28 2 -2 1 -11 -3 -20z m52 -15 c-9 -10 -16 -23 -16 -29 0 -15 -17
-16 -25 -2 -3 6 1 13 9 16 9 3 16 14 16 24 0 10 6 20 13 23 19 6 21 -12 3 -32z
m-536 19 c0 -5 -4 -10 -10 -10 -5 0 -10 5 -10 10 0 6 5 10 10 10 6 0 10 -4 10
-10z m100 0 c0 -5 -4 -10 -10 -10 -5 0 -10 5 -10 10 0 6 5 10 10 10 6 0 10 -4
10 -10z m338 -1 c-2 -6 -8 -10 -13 -10 -5 0 -11 4 -13 10 -2 6 4 11 13 11 9 0
15 -5 13 -11z m-393 -39 c3 -5 1 -10 -4 -10 -6 0 -11 5 -11 10 0 6 2 10 4 10
3 0 8 -4 11 -10z m110 0 c3 -5 -1 -10 -10 -10 -9 0 -13 5 -10 10 3 6 8 10 10
10 2 0 7 -4 10 -10z m75 -6 c0 -2 -7 -4 -15 -4 -8 0 -15 4 -15 10 0 5 7 7 15
4 8 -4 15 -8 15 -10z m55 -4 c-3 -4 -15 -6 -27 -2 -21 5 -21 6 -2 12 21 8 37
3 29 -10z m40 11 c3 -5 1 -12 -5 -16 -5 -3 -10 1 -10 9 0 18 6 21 15 7z m47
-6 c0 -5 -5 -11 -11 -13 -6 -2 -11 4 -11 13 0 9 5 15 11 13 6 -2 11 -8 11 -13z
m39 2 c-1 -12 -15 -9 -19 4 -3 6 1 10 8 8 6 -3 11 -8 11 -12z m63 5 c2 -4 0
-14 -5 -22 -8 -13 -10 -13 -18 0 -10 15 -6 30 9 30 5 0 11 -4 14 -8z m-477 -8
c-3 -3 -12 -4 -19 -1 -8 3 -5 6 6 6 11 1 17 -2 13 -5z m419 -51 c-10 -10 -19
5 -10 18 6 11 8 11 12 0 2 -7 1 -15 -2 -18z m92 9 c2 -7 -3 -12 -12 -12 -9 0
-16 7 -16 16 0 17 22 14 28 -4z m97 9 c3 -5 -2 -16 -10 -24 -8 -9 -15 -20 -15
-26 0 -6 -4 -11 -9 -11 -5 0 -7 -10 -3 -22 4 -17 2 -20 -12 -15 -10 4 -22 7
-27 7 -5 0 -9 6 -9 14 0 8 -6 16 -12 19 -10 4 -10 7 0 18 9 10 15 10 23 2 13
-13 30 -1 42 30 7 18 22 23 32 8z m-605 -11 c0 -5 -9 -10 -20 -10 -11 0 -20 5
-20 10 0 6 9 10 20 10 11 0 20 -4 20 -10z m50 1 c0 -6 -4 -13 -10 -16 -5 -3
-10 1 -10 9 0 9 5 16 10 16 6 0 10 -4 10 -9z m50 -1 c0 -5 -4 -10 -10 -10 -5
0 -10 5 -10 10 0 6 5 10 10 10 6 0 10 -4 10 -10z m50 -6 c0 -8 -4 -12 -10 -9
-5 3 -10 10 -10 16 0 5 5 9 10 9 6 0 10 -7 10 -16z m60 6 c0 -5 -7 -10 -15
-10 -8 0 -15 5 -15 10 0 6 7 10 15 10 8 0 15 -4 15 -10z m60 0 c0 -5 -4 -10
-9 -10 -6 0 -13 5 -16 10 -3 6 1 10 9 10 9 0 16 -4 16 -10z m55 0 c-3 -5 -10
-10 -16 -10 -5 0 -9 5 -9 10 0 6 7 10 16 10 8 0 12 -4 9 -10z m55 0 c0 -5 -7
-10 -15 -10 -8 0 -15 5 -15 10 0 6 7 10 15 10 8 0 15 -4 15 -10z m85 0 c-3 -5
-10 -10 -16 -10 -5 0 -9 5 -9 10 0 6 7 10 16 10 8 0 12 -4 9 -10z m-68 -46
c-9 -9 -28 6 -21 18 4 6 10 6 17 -1 6 -6 8 -13 4 -17z m84 3 c-13 -13 -26 -3
-16 12 3 6 11 8 17 5 6 -4 6 -10 -1 -17z m-231 3 c0 -5 -4 -10 -9 -10 -6 0
-13 5 -16 10 -3 6 1 10 9 10 9 0 16 -4 16 -10z m50 0 c0 -5 -4 -10 -10 -10 -5
0 -10 5 -10 10 0 6 5 10 10 10 6 0 10 -4 10 -10z m50 0 c0 -5 -7 -10 -15 -10
-8 0 -15 5 -15 10 0 6 7 10 15 10 8 0 15 -4 15 -10z m90 0 c0 -5 -4 -10 -10
-10 -5 0 -10 5 -10 10 0 6 5 10 10 10 6 0 10 -4 10 -10z m-450 -21 c0 -5 -4
-9 -10 -9 -5 0 -10 7 -10 16 0 8 5 12 10 9 6 -3 10 -10 10 -16z m157 -1 c-3
-8 -6 -5 -6 6 -1 11 2 17 5 13 3 -3 4 -12 1 -19z m53 7 c0 -8 -4 -15 -10 -15
-5 0 -10 7 -10 15 0 8 5 15 10 15 6 0 10 -7 10 -15z m-155 -4 c3 -5 1 -12 -5
-16 -5 -3 -10 1 -10 9 0 18 6 21 15 7z m55 -7 c0 -8 -4 -12 -10 -9 -5 3 -10
10 -10 16 0 5 5 9 10 9 6 0 10 -7 10 -16z m270 -4 c0 -5 -4 -10 -10 -10 -5 0
-10 5 -10 10 0 6 5 10 10 10 6 0 10 -4 10 -10z m50 0 c0 -5 -4 -10 -9 -10 -6
0 -13 5 -16 10 -3 6 1 10 9 10 9 0 16 -4 16 -10z m40 0 c0 -5 -4 -10 -10 -10
-5 0 -10 5 -10 10 0 6 5 10 10 10 6 0 10 -4 10 -10z m40 0 c0 -5 -4 -10 -10
-10 -5 0 -10 5 -10 10 0 6 5 10 10 10 6 0 10 -4 10 -10z m-315 -239 c3 -5 1
-12 -5 -16 -5 -3 -10 1 -10 9 0 18 6 21 15 7z m102 -13 c-3 -8 -6 -5 -6 6 -1
11 2 17 5 13 3 -3 4 -12 1 -19z m63 7 c0 -8 -4 -15 -9 -15 -13 0 -22 16 -14
24 11 11 23 6 23 -9z m50 0 c0 -8 -4 -15 -10 -15 -5 0 -10 7 -10 15 0 8 5 15
10 15 6 0 10 -7 10 -15z m50 0 c0 -8 -4 -15 -10 -15 -5 0 -10 7 -10 15 0 8 5
15 10 15 6 0 10 -7 10 -15z m50 0 c0 -8 -4 -15 -10 -15 -5 0 -10 7 -10 15 0 8
5 15 10 15 6 0 10 -7 10 -15z m50 0 c0 -8 -7 -15 -15 -15 -16 0 -20 12 -8 23
11 12 23 8 23 -8z m40 -7 c0 -16 -3 -19 -11 -11 -6 6 -8 16 -5 22 11 17 16 13
16 -11z m80 7 c0 -14 -21 -16 -58 -6 -12 3 11 17 32 19 18 1 26 -3 26 -13z
m50 0 c0 -8 -4 -15 -9 -15 -13 0 -22 16 -14 24 11 11 23 6 23 -9z m70 1 c0 -8
7 -16 15 -20 8 -3 15 -12 15 -21 0 -8 5 -15 10 -15 6 0 10 7 10 15 0 9 10 15
26 15 19 0 25 -4 20 -15 -4 -10 1 -15 14 -15 11 0 20 -7 20 -15 0 -8 -4 -15
-10 -15 -16 0 -12 -47 5 -54 27 -10 16 -26 -17 -25 -18 1 -25 3 -15 6 20 5 18
24 -2 31 -7 2 -15 -5 -18 -17 -5 -18 -13 -21 -67 -21 -58 0 -62 1 -74 30 -16
36 -8 54 17 40 10 -5 21 -6 25 -3 3 3 6 1 6 -5 0 -6 -4 -14 -10 -17 -25 -15
-9 -32 29 -30 49 3 60 10 54 36 -5 16 -2 20 14 17 19 -3 23 1 23 22 0 14 -27
13 -32 -1 -7 -22 -50 2 -64 37 -17 39 -18 54 -4 54 6 0 10 -6 10 -14z m68 2
c-6 -18 -28 -21 -28 -4 0 9 7 16 16 16 9 0 14 -5 12 -12z m62 -3 c0 -8 -9 -15
-20 -15 -11 0 -20 7 -20 15 0 8 9 15 20 15 11 0 20 -7 20 -15z m-790 -5 c0 -5
-4 -10 -10 -10 -5 0 -10 5 -10 10 0 6 5 10 10 10 6 0 10 -4 10 -10z m110 0 c0
-5 -4 -10 -10 -10 -5 0 -10 5 -10 10 0 6 5 10 10 10 6 0 10 -4 10 -10z m514
-15 c-3 -8 1 -22 10 -30 21 -22 20 -35 -2 -35 -10 0 -25 12 -33 26 -12 23 -12
27 6 40 24 18 26 17 19 -1z m-324 -15 c0 -5 -4 -10 -10 -10 -5 0 -10 5 -10 10
0 6 5 10 10 10 6 0 10 -4 10 -10z m70 6 c0 -3 -4 -8 -10 -11 -5 -3 -10 -1 -10
4 0 6 5 11 10 11 6 0 10 -2 10 -4z m35 -6 c-3 -5 -10 -10 -16 -10 -5 0 -9 5
-9 10 0 6 7 10 16 10 8 0 12 -4 9 -10z m113 -12 l11 -23 0 23 c1 24 31 32 31
7 0 -8 7 -15 15 -15 8 0 15 -7 15 -16 0 -12 -7 -14 -30 -9 -23 5 -30 3 -30 -9
0 -9 -4 -16 -10 -16 -5 0 -10 -7 -10 -15 0 -8 -4 -15 -10 -15 -14 0 -13 27 2
32 6 2 8 10 4 16 -10 17 -26 15 -26 -4 0 -16 -27 -43 -42 -44 -5 0 -8 7 -8 16
0 10 6 14 15 10 10 -4 15 1 15 14 0 11 5 20 10 20 6 0 10 11 10 25 0 31 23 33
38 3z m-374 -4 c9 -24 7 -27 -9 -10 -17 17 -19 26 -6 26 5 0 12 -7 15 -16z
m46 0 c0 -8 -4 -12 -10 -9 -5 3 -10 10 -10 16 0 5 5 9 10 9 6 0 10 -7 10 -16z
m50 1 c0 -8 -4 -15 -10 -15 -5 0 -10 7 -10 15 0 8 5 15 10 15 6 0 10 -7 10
-15z m210 -5 c0 -11 -7 -20 -15 -20 -8 0 -15 9 -15 20 0 11 7 20 15 20 8 0 15
-9 15 -20z m-550 0 c0 -5 -4 -10 -10 -10 -5 0 -10 5 -10 10 0 6 5 10 10 10 6
0 10 -4 10 -10z m110 -5 c0 -8 -7 -15 -15 -15 -16 0 -20 12 -8 23 11 12 23 8
23 -8z m58 4 c-2 -6 -8 -10 -13 -10 -5 0 -11 4 -13 10 -2 6 4 11 13 11 9 0 15
-5 13 -11z m-118 -9 c0 -5 -4 -10 -10 -10 -5 0 -10 5 -10 10 0 6 5 10 10 10 6
0 10 -4 10 -10z m160 -5 c0 -8 5 -15 12 -15 6 0 8 -3 5 -6 -8 -8 -37 14 -37
27 0 5 5 9 10 9 6 0 10 -7 10 -15z m230 6 c0 -5 -7 -11 -15 -15 -15 -5 -20 5
-8 17 9 10 23 9 23 -2z m50 -1 c0 -5 -7 -10 -15 -10 -8 0 -15 5 -15 10 0 6 7
10 15 10 8 0 15 -4 15 -10z m-170 -20 c0 -5 -5 -10 -11 -10 -5 0 -7 5 -4 10 3
6 8 10 11 10 2 0 4 -4 4 -10z m26 -37 c-11 -11 -19 6 -11 24 8 17 8 17 12 0 3
-10 2 -21 -1 -24z m116 5 c-9 -9 -12 -7 -12 12 0 19 3 21 12 12 9 -9 9 -15 0
-24z m-182 12 c0 -5 -2 -10 -4 -10 -3 0 -8 5 -11 10 -3 6 -1 10 4 10 6 0 11
-4 11 -10z m130 -6 c0 -9 -5 -14 -12 -12 -18 6 -21 28 -4 28 9 0 16 -7 16 -16z
m105 -4 c0 -7 -6 -15 -12 -17 -8 -3 -13 4 -13 17 0 13 5 20 13 18 6 -3 12 -11
12 -18z m145 3 c0 -9 7 -25 17 -35 15 -17 15 -18 -4 -18 -22 0 -49 42 -39 59
11 17 26 13 26 -6z m130 -3 c0 -22 -7 -25 -29 -11 -16 10 -6 31 15 31 8 0 14
-9 14 -20z m140 6 c0 -15 -24 -28 -34 -19 -13 14 -5 33 14 33 11 0 20 -6 20
-14z m-750 -4 c0 -13 -12 -22 -22 -16 -10 6 -1 24 13 24 5 0 9 -4 9 -8z m55
-1 c3 -5 1 -12 -5 -16 -5 -3 -10 1 -10 9 0 18 6 21 15 7z m75 -11 c0 -5 -4
-10 -10 -10 -5 0 -10 5 -10 10 0 6 5 10 10 10 6 0 10 -4 10 -10z m130 -26 c0
-8 -4 -14 -10 -14 -5 0 -10 9 -10 21 0 11 5 17 10 14 6 -3 10 -13 10 -21z
m-404 -11 c-10 -10 -19 5 -10 18 6 11 8 11 12 0 2 -7 1 -15 -2 -18z m244 12
c0 -8 -4 -15 -9 -15 -13 0 -22 16 -14 24 11 11 23 6 23 -9z m98 -3 c2 -7 -3
-12 -12 -12 -9 0 -16 7 -16 16 0 17 22 14 28 -4z m-168 -2 c0 -5 -4 -10 -10
-10 -5 0 -10 5 -10 10 0 6 5 10 10 10 6 0 10 -4 10 -10z m275 0 c3 -5 -1 -10
-10 -10 -9 0 -13 5 -10 10 3 6 8 10 10 10 2 0 7 -4 10 -10z m100 0 c3 -5 -3
-10 -15 -10 -12 0 -18 5 -15 10 3 6 10 10 15 10 5 0 12 -4 15 -10z m45 0 c0
-5 -7 -10 -16 -10 -8 0 -12 5 -9 10 3 6 10 10 16 10 5 0 9 -4 9 -10z"/>
<path d="M5720 5180 c0 -5 5 -10 11 -10 5 0 7 5 4 10 -3 6 -8 10 -11 10 -2 0
-4 -4 -4 -10z"/>
<path d="M5580 5150 c0 -5 5 -10 11 -10 5 0 7 5 4 10 -3 6 -8 10 -11 10 -2 0
-4 -4 -4 -10z"/>
<path d="M5655 5140 c3 -5 8 -10 11 -10 2 0 4 5 4 10 0 6 -5 10 -11 10 -5 0
-7 -4 -4 -10z"/>
<path d="M5615 5120 c3 -5 11 -10 16 -10 6 0 7 5 4 10 -3 6 -11 10 -16 10 -6
0 -7 -4 -4 -10z"/>
<path d="M5686 5115 c-9 -23 -8 -25 9 -25 17 0 19 9 6 28 -7 11 -10 10 -15 -3z"/>
<path d="M5645 5080 c3 -5 8 -10 11 -10 2 0 4 5 4 10 0 6 -5 10 -11 10 -5 0
-7 -4 -4 -10z"/>
<path d="M900 5044 c0 -8 5 -12 10 -9 6 3 10 10 10 16 0 5 -4 9 -10 9 -5 0
-10 -7 -10 -16z"/>
<path d="M5490 4709 c0 -5 5 -7 10 -4 6 3 10 8 10 11 0 2 -4 4 -10 4 -5 0 -10
-5 -10 -11z"/>
<path d="M1230 4356 c0 -8 4 -17 9 -20 5 -4 7 3 4 14 -6 23 -13 26 -13 6z"/>
<path d="M5240 4360 c0 -6 7 -10 15 -10 8 0 15 2 15 4 0 2 -7 6 -15 10 -8 3
-15 1 -15 -4z"/>
<path d="M5350 4350 c0 -5 4 -10 9 -10 6 0 13 5 16 10 3 6 -1 10 -9 10 -9 0
-16 -4 -16 -10z"/>
<path d="M5280 4316 c0 -2 7 -9 15 -16 9 -7 15 -8 15 -2 0 5 -7 12 -15 16 -8
3 -15 4 -15 2z"/>
<path d="M5370 4298 c1 -16 50 -53 50 -38 0 6 -7 13 -15 16 -8 4 -15 12 -15
20 0 8 -4 14 -10 14 -5 0 -10 -6 -10 -12z"/>
<path d="M4868 4213 c7 -3 16 -2 19 1 4 3 -2 6 -13 5 -11 0 -14 -3 -6 -6z"/>
<path d="M4918 4213 c6 -2 18 -2 25 0 6 3 1 5 -13 5 -14 0 -19 -2 -12 -5z"/>
<path d="M4975 4210 c3 -5 13 -10 21 -10 8 0 12 5 9 10 -3 6 -13 10 -21 10 -8
0 -12 -4 -9 -10z"/>
<path d="M5045 4210 c-3 -5 1 -10 9 -10 9 0 16 5 16 10 0 6 -4 10 -9 10 -6 0
-13 -4 -16 -10z"/>
<path d="M5072 3934 c-14 -17 -20 -33 -17 -45 9 -28 21 -23 39 16 9 19 24 35
32 35 8 0 12 5 9 10 -11 18 -39 10 -63 -16z"/>
<path d="M4794 3800 c22 -4 51 -4 65 0 19 6 7 8 -39 8 -58 0 -61 -1 -26 -8z"/>
<path d="M4890 3779 c0 -5 9 -9 20 -9 11 0 20 2 20 4 0 2 -9 6 -20 9 -11 3
-20 1 -20 -4z"/>
<path d="M16 2978 c3 -35 9 -79 13 -98 l7 -35 1449 0 c1343 0 1454 -1 1505
-17 87 -27 169 -86 248 -179 87 -104 100 -114 190 -161 69 -36 79 -38 162 -38
66 0 103 -5 141 -20 73 -29 135 -75 167 -122 23 -36 28 -54 32 -140 3 -54 2
-98 -2 -98 -5 0 -8 33 -8 74 0 51 -4 77 -14 85 -11 9 -65 10 -218 3 -158 -7
-179 -9 -95 -10 l107 -2 1 -62 c1 -35 1 -71 0 -80 -1 -10 1 -19 6 -19 4 -1
153 -3 331 -3 l322 -2 0 88 c0 88 0 88 -25 88 -37 0 -95 33 -136 77 -42 45
-89 108 -89 120 -1 27 -183 173 -216 173 -6 0 -17 6 -23 13 -7 9 -46 16 -113
20 -92 6 -111 11 -175 43 -49 24 -91 56 -130 97 -134 141 -174 176 -230 202
-130 62 -27 58 -1691 62 l-1523 4 7 -63z"/>
<path d="M6551 2749 c-7 -45 -10 -83 -8 -85 2 -3 10 32 17 76 7 44 11 83 8 85
-3 3 -10 -32 -17 -76z"/>
<path d="M70 2630 c0 -6 10 -49 21 -95 l21 -85 927 0 c604 0 939 -4 963 -10
75 -21 104 -109 54 -167 l-24 -28 -923 -3 c-508 -2 -925 -5 -927 -7 -2 -1 12
-43 30 -91 l33 -89 1295 -3 c712 -1 1298 -6 1303 -11 12 -12 -18 -80 -51 -114
-40 -43 -94 -67 -172 -76 -39 -5 -564 -7 -1176 -3 l-1106 5 37 -74 c21 -41 46
-86 57 -101 l19 -28 535 0 534 0 12 -25 c23 -50 -31 -137 -107 -171 -11 -5
-206 -11 -433 -14 l-414 -5 67 -90 c36 -49 74 -96 83 -102 26 -21 651 -18 743
3 88 20 177 78 236 154 89 114 133 157 192 189 99 52 173 61 521 61 188 0 330
4 362 11 83 17 164 66 222 132 116 135 143 160 200 191 75 42 117 55 197 64
l62 7 -1 90 -1 90 -498 5 c-467 5 -500 6 -526 24 -49 33 -62 90 -31 134 30 44
48 47 307 52 l248 5 -23 35 c-35 51 -112 105 -185 129 -63 21 -71 21 -1373 21
-897 0 -1310 -3 -1310 -10z"/>
<path d="M4620 2145 l0 -95 873 2 872 3 32 85 c18 47 32 88 33 93 0 4 -407 7
-905 7 l-905 0 0 -95z"/>
<path d="M4245 1840 c-733 -5 -693 -2 -801 -58 -55 -28 -136 -117 -164 -179
-19 -43 -22 -63 -18 -116 6 -70 21 -100 83 -163 68 -70 118 -84 302 -84 87 0
317 -3 511 -7 l352 -6 0 -104 0 -103 -257 -1 c-142 -1 -321 -4 -398 -8 -139
-6 -139 -6 -67 -14 70 -8 93 -23 52 -34 -11 -3 -20 -10 -20 -15 0 -5 9 -6 20
-3 18 6 20 2 20 -43 0 -49 0 -49 -37 -56 -21 -3 -74 -7 -118 -8 -250 -6 343
-15 1010 -16 l770 -1 105 99 105 99 -452 1 -453 0 0 105 0 105 544 0 543 0 45
58 c24 31 59 79 77 105 l33 49 -1273 -3 -1274 -2 3 33 c5 45 25 73 81 113 99
71 11 67 1369 68 l1221 0 19 27 c11 15 36 59 56 99 l36 72 -673 -2 c-369 -1
-978 -4 -1352 -7z"/>
<path d="M1020 921 l105 -100 825 -3 c454 -2 826 -2 828 -1 10 4 -32 64 -66
95 -49 44 -69 55 -147 82 -58 19 -88 20 -855 23 l-795 3 105 -99z"/>
<path d="M4618 590 c-146 -3 -270 -8 -274 -12 -4 -5 37 -8 91 -8 106 0 127 -7
32 -11 -32 -1 -62 -8 -67 -14 -5 -6 -7 -34 -5 -62 4 -63 -3 -71 -75 -75 -30
-2 77 -7 238 -11 l293 -8 67 36 c66 37 248 150 267 167 6 5 -55 8 -145 6 -85
-2 -275 -5 -422 -8z"/>
<path d="M4338 423 c7 -3 16 -2 19 1 4 3 -2 6 -13 5 -11 0 -14 -3 -6 -6z"/>
</g>
</svg>
