<?xml version="1.0" standalone="no"?>
<!DOCTYPE svg PUBLIC "-//W3C//DTD SVG 20010904//EN"
 "http://www.w3.org/TR/2001/REC-SVG-20010904/DTD/svg10.dtd">
<svg version="1.0" xmlns="http://www.w3.org/2000/svg"
 width="644.000000pt" height="644.000000pt" viewBox="0 0 644.000000 644.000000"
 preserveAspectRatio="xMidYMid meet">

<g transform="translate(0.000000,644.000000) scale(0.100000,-0.100000)"
fill="#000000" stroke="none">
<path d="M2990 6434 c-724 -65 -1353 -327 -1885 -786 -47 -40 -85 -76 -85 -80
0 -12 238 -165 380 -245 108 -61 765 -455 813 -487 l37 -26 0 -90 c0 -49 -2
-90 -5 -90 -6 0 -70 34 -95 50 -8 5 -208 125 -445 266 -236 140 -446 266 -465
278 -87 57 -344 206 -355 206 -11 0 -170 -180 -211 -238 l-15 -22 99 0 c60 0
119 -6 153 -16 70 -20 220 -100 406 -215 81 -51 209 -128 283 -172 74 -44 153
-93 175 -110 22 -17 41 -32 43 -33 3 -2 -39 -133 -46 -144 -2 -2 -12 1 -23 8
-11 7 -108 64 -217 126 -191 110 -254 148 -514 306 l-123 75 -180 3 -181 3
-77 -129 c-42 -71 -77 -132 -77 -135 0 -4 105 -7 233 -7 l233 0 69 -34 c39
-19 106 -57 150 -85 74 -46 214 -127 555 -320 74 -41 144 -81 155 -87 44 -25
394 -218 452 -250 34 -19 85 -47 113 -64 28 -16 55 -30 60 -30 6 0 30 15 54
34 93 70 197 106 644 216 214 53 223 58 347 170 44 40 120 109 169 154 50 45
102 92 116 106 59 56 268 249 308 285 l43 38 55 -54 55 -54 -48 -44 c-26 -25
-73 -68 -103 -96 -109 -102 -326 -288 -365 -313 -51 -33 -33 -38 55 -17 38 9
73 14 79 11 21 -13 91 -130 83 -138 -8 -8 -287 -88 -415 -119 -20 -5 -77 -21
-125 -35 -92 -27 -179 -51 -327 -89 -129 -33 -373 -102 -418 -117 -64 -23 -67
-20 178 -145 l89 -46 46 18 c25 10 117 42 205 71 146 48 235 74 575 165 63 17
169 47 235 66 66 19 138 39 160 44 107 26 253 73 307 99 66 32 98 56 273 209
332 290 454 399 610 541 94 85 232 209 308 274 75 66 137 123 137 127 0 13
-151 190 -167 196 -8 3 -42 -21 -81 -58 -37 -35 -101 -95 -142 -133 -41 -38
-112 -105 -157 -148 -45 -43 -86 -78 -91 -78 -4 0 -31 24 -60 53 l-53 53 68
64 c37 35 113 107 168 160 56 52 129 120 163 150 34 30 62 60 61 65 -1 13
-153 149 -170 153 -8 1 -30 -12 -49 -30 -19 -18 -96 -89 -170 -157 -74 -69
-162 -150 -195 -180 -33 -31 -82 -76 -110 -100 -74 -66 -241 -218 -307 -280
l-58 -54 -50 50 c-27 28 -50 59 -50 69 0 12 59 72 156 159 86 77 166 149 178
160 11 11 82 74 156 140 278 246 359 322 360 336 0 7 -226 155 -315 207 -353
202 -766 340 -1190 397 -115 16 -532 28 -635 19z m340 -206 c120 -82 73 -258
-68 -258 -40 0 -57 6 -82 26 -62 53 -76 120 -39 181 44 72 126 93 189 51z
m-522 -107 c5 -31 -15 -51 -49 -51 -22 0 -32 7 -41 26 -11 24 -9 29 16 51 25
22 30 23 50 10 11 -8 22 -24 24 -36z m1063 -20 c38 -38 39 -87 3 -126 -23 -25
-30 -27 -77 -22 -85 8 -114 75 -61 144 21 28 31 33 65 33 31 0 47 -7 70 -29z
m454 -81 c21 -23 25 -18 -93 -137 -45 -46 -88 -83 -95 -83 -17 0 -37 20 -37
37 0 13 188 203 201 203 3 0 14 -9 24 -20z m-1936 -9 c246 -77 382 -346 292
-581 -66 -173 -211 -284 -386 -297 -217 -17 -394 111 -460 332 -41 138 2 296
111 414 57 62 129 104 225 131 83 24 143 24 218 1z m2347 -140 l33 -35 -20
-27 c-11 -15 -49 -55 -86 -89 l-67 -61 -55 55 -55 55 88 86 c99 97 87 96 162
16z m-676 -111 c21 0 18 -33 -5 -56 -20 -20 -28 -23 -45 -14 -11 6 -20 16 -20
23 0 23 32 59 47 53 8 -3 18 -6 23 -6z m-1042 -73 c13 -10 16 -46 4 -63 -4 -6
-17 -14 -29 -18 -31 -10 -67 27 -57 57 13 42 46 52 82 24z m448 -28 c53 -52
63 -110 26 -167 -18 -28 -46 -43 -96 -53 -100 -18 -177 71 -147 172 27 91 145
118 217 48z m-1916 -19 c53 -53 -16 -134 -72 -83 -25 23 -23 68 4 87 30 21 44
20 68 -4z m2394 -13 c16 -26 -31 -68 -61 -56 -31 11 -29 33 5 58 30 23 41 22
56 -2z m429 -61 c26 -30 47 -59 47 -64 0 -9 -358 -349 -455 -432 -27 -23 -82
-72 -121 -109 -39 -36 -95 -89 -125 -116 -30 -28 -115 -107 -189 -176 -74 -69
-160 -145 -190 -169 -69 -55 -190 -111 -300 -140 -47 -12 -155 -42 -242 -66
-86 -24 -167 -43 -180 -42 -12 1 -39 -3 -58 -9 -19 -6 -50 -11 -67 -10 -31 0
-33 2 -33 39 0 35 -2 38 -27 38 -26 0 -27 1 -8 14 11 7 29 16 40 18 11 3 -18
4 -65 2 l-85 -3 85 10 c47 5 99 15 115 23 17 8 45 17 63 21 17 4 32 10 32 15
0 10 60 30 215 70 112 28 212 56 295 82 63 20 91 42 385 312 60 56 141 131
180 167 38 36 95 88 125 115 144 130 343 315 415 386 44 43 85 78 91 78 5 0
31 -24 57 -54z m-569 -67 c11 -16 12 -27 4 -45 -16 -33 -34 -36 -53 -8 -15 23
-15 27 0 50 19 30 30 30 49 3z m-785 -255 c25 -32 26 -52 5 -82 -22 -31 -70
-26 -97 9 -48 65 42 136 92 73z m367 -125 c19 -21 19 -21 -111 -146 -72 -68
-158 -149 -193 -180 -61 -54 -63 -55 -82 -38 -11 10 -20 23 -20 29 0 20 358
356 379 356 4 0 16 -9 27 -21z m1480 -219 c27 -27 49 -55 49 -61 0 -7 -52 -60
-116 -118 -253 -232 -369 -334 -405 -359 -59 -40 -166 -92 -189 -92 -11 0 -33
15 -49 33 -15 17 -39 44 -53 58 -22 24 -23 28 -8 42 9 9 47 26 84 37 90 26
116 45 311 224 222 203 314 285 321 286 3 0 28 -22 55 -50z m-2216 -25 c32
-16 55 -72 46 -109 -3 -12 -15 -35 -27 -49 -17 -22 -29 -27 -65 -27 -106 0
-141 119 -56 188 21 16 67 15 102 -3z m-210 -665 c0 -5 -9 -10 -21 -10 -11 0
-17 5 -14 10 3 6 13 10 21 10 8 0 14 -4 14 -10z"/>
<path d="M5769 5037 c-30 -29 -93 -86 -140 -127 -46 -41 -111 -100 -144 -131
-123 -114 -605 -547 -696 -624 -263 -225 -329 -259 -704 -362 -110 -30 -213
-59 -230 -63 -39 -12 -205 -58 -270 -75 -27 -8 -75 -21 -105 -30 -30 -9 -84
-25 -120 -35 -304 -85 -313 -91 -235 -135 37 -20 318 -173 445 -242 250 -135
417 -226 425 -233 9 -7 58 -33 235 -127 83 -45 329 -145 430 -176 57 -17 113
-20 460 -29 217 -5 486 -7 596 -4 245 7 490 -2 493 -18 1 -6 3 -24 5 -41 3
-16 5 -31 6 -32 2 -2 3 -8 4 -15 0 -7 12 -15 26 -19 14 -4 -194 -7 -462 -8
-313 -1 -489 -5 -493 -11 -10 -17 -487 -13 -587 5 -77 13 -280 71 -386 110
-51 18 -179 82 -282 140 -41 23 -106 59 -145 80 -38 21 -128 71 -200 111 -71
39 -166 91 -210 114 -44 23 -98 52 -120 65 -22 12 -103 55 -180 95 -77 40
-144 76 -150 80 -5 4 -53 29 -105 56 -52 27 -97 51 -100 54 -3 3 -23 14 -45
25 -22 11 -80 43 -130 71 -96 54 -503 281 -595 332 -271 147 -385 211 -505
281 -269 158 -461 272 -595 354 l-135 82 -266 3 -266 3 -26 -58 c-61 -136
-123 -319 -162 -473 -9 -36 -18 -73 -21 -82 -5 -15 43 -17 673 -20 l678 -3
140 -74 c77 -41 156 -84 175 -96 19 -12 85 -48 145 -80 61 -32 124 -66 140
-75 17 -10 93 -50 170 -90 215 -112 344 -179 415 -218 36 -19 106 -57 155 -84
50 -27 97 -53 105 -58 8 -6 22 -13 30 -17 14 -7 188 -104 220 -123 8 -5 47
-26 85 -46 39 -20 99 -53 135 -74 36 -20 106 -59 155 -85 185 -98 381 -203
425 -228 310 -173 335 -184 487 -201 151 -18 251 -49 479 -149 150 -67 258
-109 324 -129 53 -16 295 -125 390 -176 141 -76 165 -94 230 -172 35 -41 82
-96 107 -122 l43 -48 20 33 c94 151 231 471 295 685 65 222 124 558 125 715
l0 57 -310 0 c-301 0 -310 1 -320 20 -6 12 -10 37 -8 58 2 29 10 41 37 59 33
23 39 23 318 23 l284 0 -3 83 -3 82 -392 0 c-282 0 -395 3 -404 12 -14 14 -3
65 22 97 11 14 44 34 75 45 51 20 76 21 375 21 268 0 320 2 316 14 -3 7 -9 50
-12 95 l-8 81 -424 0 c-416 0 -425 0 -476 -22 -80 -34 -124 -66 -282 -207 -16
-15 -106 -93 -200 -173 -93 -81 -199 -173 -235 -204 -80 -69 -92 -94 -64 -131
39 -52 68 -66 148 -71 l76 -5 0 -68 0 -69 -104 0 c-116 0 -140 6 -195 50 -108
87 -120 241 -28 346 22 25 131 124 242 220 111 95 238 206 281 245 95 86 254
207 309 234 38 19 64 20 476 23 l436 3 -21 90 -21 89 -465 -2 -465 -3 -57 -29
c-55 -27 -142 -98 -348 -285 -52 -47 -112 -102 -133 -121 -140 -126 -189 -145
-787 -305 -137 -36 -256 -70 -281 -80 -10 -4 -36 18 -81 68 l-67 74 109 27
c60 14 144 38 187 51 43 14 188 52 323 86 256 63 337 89 383 123 15 12 114 97
220 189 257 226 340 290 433 334 l79 38 448 3 c348 2 448 5 444 15 -3 7 -24
59 -47 117 -80 203 -183 400 -308 592 -31 48 -61 88 -67 88 -5 -1 -35 -24 -66
-53z m-55 -428 c32 -25 34 -64 4 -96 -26 -28 -61 -30 -88 -3 -27 27 -26 74 2
100 28 25 48 25 82 -1z m-4814 -314 c58 -30 77 -94 45 -154 -47 -91 -205 -47
-205 57 0 30 7 45 33 69 49 46 79 53 127 28z m-376 -77 c17 -28 -4 -72 -37
-76 -16 -2 -35 2 -43 9 -14 12 -20 70 -7 83 13 13 76 1 87 -16z m4770 -963
c34 -16 66 -69 66 -107 0 -31 -38 -86 -70 -103 -16 -8 -47 -15 -68 -15 -34 0
-45 6 -76 40 -29 32 -36 48 -36 81 0 35 6 48 39 80 44 44 87 51 145 24z m358
-32 c10 -9 18 -23 18 -31 0 -23 -30 -52 -55 -52 -43 0 -60 47 -28 82 20 22 41
23 65 1z m-1370 -20 c24 -22 24 -77 -2 -103 -27 -27 -66 -25 -95 5 -29 28 -32
61 -9 93 19 27 78 30 106 5z m1796 -925 c17 -17 15 -53 -3 -68 -36 -30 -87 18
-64 62 11 20 49 24 67 6z m-144 -374 c9 -8 16 -24 16 -35 0 -24 -34 -59 -58
-59 -28 0 -62 29 -62 52 0 50 69 77 104 42z"/>
<path d="M36 3699 c-3 -34 -6 -70 -6 -80 0 -18 14 -19 258 -19 264 0 311 -5
397 -41 67 -29 120 -71 255 -203 63 -62 138 -127 165 -146 28 -18 241 -130
475 -248 234 -118 444 -228 466 -243 142 -97 224 -276 197 -434 -22 -128 -122
-268 -226 -320 -68 -33 -187 -55 -297 -55 -68 0 -110 -7 -190 -30 -132 -40
-193 -68 -373 -173 -81 -48 -150 -87 -152 -87 -3 0 -42 -24 -88 -53 -82 -54
-277 -238 -277 -263 0 -22 208 -274 226 -274 5 0 23 26 41 58 88 160 255 341
419 455 171 119 434 197 662 197 77 0 109 5 185 31 51 16 141 37 200 45 71 9
124 22 155 38 62 32 118 102 133 170 10 47 9 56 -10 94 -23 46 -81 93 -149
123 l-42 18 0 96 c0 75 3 95 14 95 27 0 174 -82 232 -129 42 -33 67 -65 93
-115 34 -65 36 -74 36 -165 0 -85 -3 -103 -28 -152 -15 -31 -50 -79 -77 -107
-72 -73 -152 -108 -328 -143 -81 -16 -167 -36 -192 -45 -30 -11 -101 -19 -215
-24 -168 -8 -225 -18 -349 -61 -218 -76 -404 -238 -587 -514 -72 -109 -73
-100 33 -191 125 -108 158 -134 166 -134 4 0 22 27 40 61 125 226 346 436 570
540 64 29 134 46 277 68 39 6 99 23 134 37 199 81 266 87 1051 82 358 -1 650
0 650 4 0 9 -68 46 -305 168 -110 57 -204 106 -210 110 -5 4 -48 28 -95 53
-47 25 -125 68 -175 95 l-90 50 -3 86 c-3 81 -2 86 18 86 18 0 251 -115 365
-180 22 -12 204 -106 405 -208 201 -102 398 -207 438 -233 40 -27 97 -57 125
-68 307 -116 584 -356 711 -616 60 -121 46 -120 171 -12 166 143 156 118 94
234 -106 200 -216 336 -354 438 -134 99 -192 126 -375 169 -141 33 -265 79
-445 166 -82 40 -245 119 -362 175 l-211 103 -4 82 c-2 46 2 89 7 97 8 11 47
-5 205 -84 107 -54 224 -111 260 -127 36 -16 119 -55 185 -88 163 -81 272
-124 374 -148 157 -37 235 -62 311 -103 239 -126 408 -298 544 -552 21 -39 42
-74 46 -79 12 -13 264 300 285 356 11 27 -152 206 -247 270 -154 105 -252 150
-553 258 -49 18 -162 63 -250 100 -198 83 -291 113 -420 134 -190 32 -334 92
-730 305 -99 54 -229 124 -290 156 -158 83 -364 194 -480 257 -55 30 -158 85
-230 123 -71 37 -177 94 -235 125 -58 32 -141 76 -185 100 -44 23 -145 77
-225 120 -314 167 -508 277 -545 308 -16 14 -52 36 -80 48 l-50 24 -666 0
-666 0 -7 -61z m1162 -155 c27 -19 30 -78 5 -106 -23 -26 -69 -23 -98 7 -31
30 -32 62 -3 92 25 27 64 30 96 7z m428 -187 c92 -51 187 -102 409 -220 88
-46 180 -95 205 -109 25 -14 113 -60 195 -103 83 -43 188 -100 235 -127 47
-27 97 -54 113 -61 27 -12 27 -13 27 -109 0 -78 -3 -98 -14 -98 -12 0 -461
240 -561 300 -16 10 -136 74 -265 143 -378 200 -394 209 -422 229 -27 18 -28
23 -28 102 0 78 4 96 20 96 4 0 43 -20 86 -43z m1579 -840 l80 -42 3 -92 c5
-114 2 -115 -114 -45 l-79 47 -3 88 c-3 105 -3 105 113 44z m285 -167 c13 -8
13 -10 -2 -10 -9 0 -20 5 -23 10 -8 13 5 13 25 0z m61 -38 c-7 -2 -18 1 -23 6
-8 8 -4 9 13 5 13 -4 18 -8 10 -11z m71 -29 c9 -3 14 -11 12 -18 -4 -10 1 -12
18 -9 20 5 21 4 6 -6 -9 -6 -15 -16 -12 -23 2 -7 -5 -12 -20 -12 -14 0 -21 4
-17 8 12 12 1 57 -15 57 -7 0 -16 5 -20 12 -5 8 -2 9 12 4 10 -5 27 -10 36
-13z m-42 -43 c0 -5 -4 -10 -10 -10 -5 0 -10 5 -10 10 0 6 5 10 10 10 6 0 10
-4 10 -10z m50 -62 c0 -4 6 -8 14 -8 11 0 30 -58 21 -68 -4 -4 -70 32 -73 41
-2 4 -9 7 -16 7 -6 0 -12 8 -12 18 0 12 9 17 33 18 18 0 33 -3 33 -8z m-1246
-150 c14 -23 -3 -52 -33 -56 -42 -6 -67 38 -39 66 17 17 58 11 72 -10z m810
-314 c36 -35 7 -84 -50 -84 -27 0 -37 5 -45 24 -25 53 53 103 95 60z m2511
-302 c17 -12 45 -60 45 -77 0 -9 -7 -27 -17 -41 -12 -19 -18 -22 -24 -12 -7
10 -9 9 -9 -4 0 -42 -92 -32 -115 12 -19 37 -19 51 2 95 16 33 20 35 62 35 25
0 51 -4 56 -8z"/>
<path d="M3595 2160 c3 -5 16 -10 28 -10 18 0 19 2 7 10 -20 13 -43 13 -35 0z"/>
<path d="M17 3424 c-4 -4 -7 -43 -7 -86 l0 -78 283 0 c264 0 284 -1 315 -20
44 -27 56 -61 37 -105 l-14 -35 -310 0 -311 0 0 -67 c0 -170 58 -507 125 -735
80 -271 247 -634 377 -820 l19 -28 90 95 c116 121 196 180 339 248 63 30 142
76 175 102 132 104 342 173 550 182 147 5 211 21 271 66 80 61 119 142 112
231 -11 130 -67 179 -383 340 -430 219 -640 328 -656 342 -8 8 -19 14 -23 14
-17 0 -96 69 -202 175 -87 88 -126 120 -180 146 l-69 34 -265 3 c-146 2 -268
0 -273 -4z m1038 -549 l0 -70 -85 -3 c-47 -2 -257 0 -468 3 l-382 7 1 64 2 64
191 3 c105 1 315 2 466 2 l275 0 0 -70z m535 -294 c0 -39 -4 -73 -10 -76 -5
-3 -326 -3 -712 1 -387 4 -692 10 -678 14 14 3 26 11 26 18 1 7 2 13 4 15 1 1
3 13 4 27 6 55 5 55 111 61 55 3 360 6 678 7 l577 2 0 -69z m216 -199 c38 -26
14 -92 -34 -92 -34 0 -52 16 -52 46 0 41 52 69 86 46z m-989 -32 c47 -28 68
-66 66 -119 -1 -39 -7 -51 -37 -78 -60 -55 -130 -56 -180 -4 -58 61 -41 162
33 201 46 25 78 25 118 0z m658 -65 l0 -40 -187 -3 -188 -2 -6 25 c-14 57 7
62 266 61 l115 -1 0 -40z m-1046 17 c23 -44 -28 -92 -64 -62 -18 15 -20 51 -3
68 18 18 56 14 67 -6z m163 -369 c36 -33 8 -93 -44 -93 -24 0 -58 35 -58 59 0
46 65 68 102 34z"/>
<path d="M5541 2575 l2 -55 124 0 123 0 0 55 0 55 -125 0 -126 0 2 -55z"/>
<path d="M2630 1289 c-86 -9 -149 -26 -309 -81 -63 -21 -165 -47 -227 -58
-122 -20 -194 -50 -300 -125 -124 -89 -292 -292 -352 -427 l-21 -48 42 -28
c211 -143 529 -290 822 -381 502 -157 1055 -183 1580 -76 138 29 324 80 338
94 13 13 -42 110 -101 179 -91 106 -218 187 -360 228 -46 14 -116 17 -421 18
l-366 1 -3 70 c-1 39 1 76 6 82 6 10 101 13 387 15 316 2 390 -1 440 -14 236
-61 474 -258 557 -462 13 -31 29 -56 36 -56 27 0 191 74 344 155 154 82 348
201 348 214 0 17 -95 190 -141 256 -141 205 -381 381 -593 435 -76 19 -107 20
-855 19 -427 -1 -810 -5 -851 -10z m1000 -224 l0 -85 -359 0 c-382 0 -474 -7
-573 -44 -35 -13 -125 -47 -200 -75 -76 -28 -144 -51 -150 -51 -7 0 -44 -18
-83 -41 -38 -22 -83 -48 -100 -57 -16 -9 -35 -24 -42 -32 -6 -8 -15 -12 -19
-7 -4 4 -2 7 4 7 7 0 12 5 12 10 0 6 -6 10 -13 10 -7 0 -14 12 -15 27 -1 15
-6 29 -11 32 -4 3 -8 20 -8 37 0 26 4 31 21 28 12 -3 15 -2 9 2 -10 4 -10 8 0
19 17 16 257 145 317 169 25 10 59 24 75 31 131 55 223 86 277 93 35 5 242 10
461 11 l397 1 0 -85z m-790 -795 c11 -11 20 -29 20 -40 0 -26 -34 -60 -62 -60
-50 0 -76 63 -41 102 21 24 58 23 83 -2z m328 4 c26 -18 28 -50 6 -82 -30 -43
-104 -16 -104 38 0 30 30 60 60 60 9 0 26 -7 38 -16z m332 -4 c24 -24 26 -57
3 -82 -21 -23 -52 -23 -80 1 -30 25 -30 65 -1 85 30 21 54 20 78 -4z m330 -10
c11 -11 20 -27 20 -35 0 -22 -37 -55 -60 -55 -22 0 -60 33 -60 53 0 25 31 57
56 57 13 0 33 -9 44 -20z"/>
</g>
</svg>
